<svg viewBox="0 0 32 32" xmlns="http://www.w3.org/2000/svg"><path d="m16 4c-6.589844 0-12 5.136719-12 11.5 0 3.390625 1.570313 6.402344 4 8.5v4.625l4.4375-2.21875c1.128906.339844 2.308594.59375 3.5625.59375 6.589844 0 12-5.136719 12-11.5s-5.410156-11.5-12-11.5zm0 2c5.558594 0 10 4.265625 10 9.5s-4.441406 9.5-10 9.5c-1.195312 0-2.335937-.226562-3.40625-.59375l-.40625-.125-2.1875 1.09375v-2.25l-.375-.3125c-2.21875-1.75-3.625-4.371094-3.625-7.3125 0-5.234375 4.441406-9.5 10-9.5zm-1.125 6.34375-6.03125 6.375 5.40625-3 2.875 3.09375 5.96875-6.46875-5.28125 2.96875z"/></svg>