<svg height="24" viewBox="0 0 24 24" width="24" xmlns="http://www.w3.org/2000/svg"><path d="m21 9h-2v2h2zm0-1v-.5c0-.82842712-.6715729-1.5-1.5-1.5h-.5v2zm0 6v-2h-2v2zm0 1h-2v2h.5c.8284271 0 1.5-.6715729 1.5-1.5zm-18-1h2v-2h-2zm0 1v.5c0 .8284271.67157288 1.5 1.5 1.5h.5v-2zm0-6v2h2v-2zm0-1h2v-2h-.5c-.82842712 0-1.5.67157288-1.5 1.5zm15-2h-12v11h12zm-13.5-1h15c1.3807119 0 2.5 1.11928813 2.5 2.5v8c0 1.3807119-1.1192881 2.5-2.5 2.5h-15c-1.38071187 0-2.5-1.1192881-2.5-2.5v-8c0-1.38071187 1.11928813-2.5 2.5-2.5zm4.5 3.5c0-.38864724.42398562-.62870382.75724788-.42874646l5.00000002 2.99999996c.3236695.1942017.3236695.6632913 0 .857493l-5.00000002 3c-.33326226.1999573-.75724788-.0400993-.75724788-.4287465zm1 5.1169048 3.5281747-2.1169048-3.5281747-2.11690481z"/></svg>