<svg fill="none" height="24" viewBox="0 0 24 24" width="24" xmlns="http://www.w3.org/2000/svg"><path clip-rule="evenodd" d="m9.5924 3.20027c-.24352.20753-.36529.31131-.49534.39847-.2981.1998-.63289.33847-.98496.40798-.15359.03033-.31307.04305-.63202.0685-.80138.06396-1.20208.09593-1.53637.21401-.7732.2731-1.38138.88128-1.65448 1.65448-.11808.33429-.15005.73499-.21401 1.53637-.02545.31895-.03817.47843-.0685.63202-.06951.35207-.20818.68686-.40798.98496-.08716.13005-.19093.25181-.39847.49534-.52144.6119-.78217.9178-.93505 1.2377-.35363.7399-.35363 1.5999 0 2.3398.15289.3199.41361.6258.93505 1.2377.20751.2435.31131.3653.39847.4953.1998.2981.33847.6329.40798.985.03033.1536.04305.3131.0685.632.06396.8014.09593 1.2021.21401 1.5364.2731.7732.88128 1.3814 1.65448 1.6545.33429.118.73499.15 1.53637.214.31895.0254.47843.0382.63202.0685.35207.0695.68686.2082.98496.408.13005.0871.25181.1909.49534.3984.6119.5215.9178.7822 1.2377.9351.7399.3536 1.5999.3536 2.3398 0 .3199-.1529.6258-.4136 1.2377-.9351.2435-.2075.3653-.3113.4953-.3984.2981-.1998.6329-.3385.985-.408.1536-.0303.3131-.0431.632-.0685.8014-.064 1.2021-.096 1.5364-.214.7732-.2731 1.3814-.8813 1.6545-1.6545.118-.3343.15-.735.214-1.5364.0254-.3189.0382-.4784.0685-.632.0695-.3521.2082-.6869.408-.985.0871-.13.1909-.2518.3984-.4953.5215-.6119.7822-.9178.9351-1.2377.3536-.7399.3536-1.5999 0-2.3398-.1529-.3199-.4136-.6258-.9351-1.2377-.2075-.24353-.3113-.36529-.3984-.49534-.1998-.2981-.3385-.63289-.408-.98496-.0303-.15359-.0431-.31307-.0685-.63202-.064-.80138-.096-1.20208-.214-1.53637-.2731-.7732-.8813-1.38138-1.6545-1.65448-.3343-.11808-.735-.15005-1.5364-.21401-.3189-.02545-.4784-.03817-.632-.0685-.3521-.06951-.6869-.20818-.985-.40798-.13-.08716-.2518-.19093-.4953-.39847-.6119-.52144-.9178-.78216-1.2377-.93505-.7399-.35363-1.5999-.35363-2.3398 0-.3199.15288-.6258.41361-1.2377.93505zm6.7811 6.66287c.3178-.31784.3178-.83314 0-1.15098-.3178-.31783-.8332-.31783-1.151 0l-4.8502 4.85024-1.59484-1.5948c-.31783-.3178-.83314-.3178-1.15097 0s-.31783.8331 0 1.151l2.17029 2.1703c.31782.3178.83312.3178 1.15102 0z" fill="#1c274c" fill-rule="evenodd"/></svg>